<?xml version="1.0" encoding="utf-8"?>
<!-- Generator: Adobe Illustrator 19.2.1, SVG Export Plug-In . SVG Version: 6.00 Build 0)  -->
<svg version="1.1" id="Layer_1" xmlns="http://www.w3.org/2000/svg" xmlns:xlink="http://www.w3.org/1999/xlink" x="0px" y="0px"
	 viewBox="0 0 80.7 76" style="enable-background:new 0 0 80.7 76;" xml:space="preserve">
<style type="text/css">
	.st0{fill:#FFFFFF;}
</style>
<g>
	<path class="st0" d="M9,18h62.7c5,0,9-4,9-9s-4-9-9-9H9C4,0,0,4,0,9S4,18,9,18z"/>
	<path class="st0" d="M71.7,29H9c-5,0-9,4-9,9s4,9,9,9h62.7c5,0,9-4,9-9S76.6,29,71.7,29z"/>
	<path class="st0" d="M71.7,58H9c-5,0-9,4-9,9s4,9,9,9h62.7c5,0,9-4,9-9S76.6,58,71.7,58z"/>
</g>
</svg>
