<?xml version="1.0" encoding="utf-8"?>
<!-- Generator: Adobe Illustrator 18.1.1, SVG Export Plug-In . SVG Version: 6.00 Build 0)  -->
<svg version="1.1" id="Layer_1" xmlns="http://www.w3.org/2000/svg" xmlns:xlink="http://www.w3.org/1999/xlink" x="0px" y="0px"
	 viewBox="50.6 3 150 150" enable-background="new 50.6 3 150 150" xml:space="preserve">
<g>
	<path fill="#FFFFFF" d="M86.9,54.3c-1.1-2-2.3-4.1-3.9-5.7c-0.4-0.4-1.2-0.8-1.3-1c-5.3,2.9-9.2,10-10.8,15.7
		c-1,3.7-1.6,7.8-0.1,11.5c2.1,5.1,7,9.3,10.7,13.2c3.2,3.4,6.1,6.7,8,10.4L90.7,62c-0.2-0.3-0.4-0.6-0.5-0.9
		C89.2,58.8,88.1,56.5,86.9,54.3z"/>
	<path fill="#FFFFFF" d="M141.5,82.7l11.7-13c-4,0-7.9,0-11.9,0L141.5,82.7z"/>
	<path fill="#FFFFFF" d="M125.6,3c-41.4,0-75,33.6-75,75c0,41.4,33.6,75,75,75c41.4,0,75-33.6,75-75C200.6,36.6,167.1,3,125.6,3z
		 M175.7,57.2L142.8,107l0.3,8.4c0,0-8.2,2.2-27,2.2c-16.4,0-27-2.2-27-2.2l0.1-2.4c-1.7,0-3.4-1.1-3.5-3.3
		C85.6,96,71,90.4,65.5,79.2c-4.2-8.6-2-18.5,2.7-26.5C71,47.9,77,39,83.8,40.9C88,42,91.2,48,93.5,51.8H105l11.1-7.4l25.1,7.5
		l0.2,14c5.1,0,10.3,0,15.4,0l13.1-14.5c0,0,2.5-13,4.4-13c6.2,0,13.2,7.2,13.9,13.6C188.2,53.8,175.7,57.2,175.7,57.2z"/>
</g>
</svg>
